<svg width="40" height="40" viewBox="0 0 40 40" fill="none" xmlns="http://www.w3.org/2000/svg">
<g clip-path="url(#clip0)">
<path d="M40 20C40.0036 22.7074 39.4555 25.3871 38.3894 27.8757L38.3231 28.0284C36.5196 32.1313 33.3923 35.511 29.4414 37.6269C25.4906 39.7428 20.9443 40.4727 16.5296 39.7C16.4095 39.6787 16.2895 39.6566 16.1698 39.6337C14.9327 39.3939 13.7213 39.0367 12.5521 38.5669C12.3621 38.4905 12.1736 38.4114 11.9864 38.3296C11.8586 38.274 11.7308 38.2166 11.6041 38.1574C8.1402 36.552 5.2074 33.9897 3.15144 30.7727C1.09547 27.5556 0.00203352 23.8179 0 20C0 8.95444 8.95444 0 20 0C31.0456 0 40 8.95444 40 20Z" fill="#04D361"/>
<path opacity="0.2" d="M16.5296 39.7C16.4095 39.6787 16.2896 39.6566 16.1698 39.6337C16.0917 37.3668 15.8237 32.7142 14.9095 27.8414C14.4095 25.1745 13.7154 22.4408 12.7527 19.997C12.4228 19.1514 12.0461 18.3249 11.6243 17.5213C10.6515 15.684 9.4716 14.1373 8.04083 13.0893L8.25148 12.8018C9.44142 13.6739 10.5109 14.8984 11.4598 16.4751C11.7444 16.9473 12.0178 17.4511 12.2799 17.9864C12.561 18.5592 12.829 19.1672 13.084 19.8106C13.2468 20.2201 13.404 20.6438 13.5556 21.0816C14.216 22.9828 14.7773 25.1521 15.2397 27.5893C15.342 28.1278 15.4395 28.6795 15.532 29.2444C16.2485 33.6213 16.4645 37.668 16.5296 39.7Z" fill="black"/>
<path opacity="0.2" d="M11.9864 38.3296C11.8586 38.274 11.7308 38.2166 11.6041 38.1574C11.4805 36.8142 11.2533 35.1479 10.8379 33.5663C10.6559 32.8559 10.4224 32.1598 10.1391 31.4834C9.6651 30.374 9.05149 29.4308 8.258 28.8491L8.46865 28.5621C9.29941 29.1704 9.94024 30.132 10.4355 31.2568C10.9935 32.5243 11.3657 33.9994 11.6136 35.4089C11.7976 36.4556 11.9136 37.4669 11.9864 38.3296Z" fill="black"/>
<path opacity="0.2" d="M6.05099 13.081C7.03427 13.081 7.83138 12.2839 7.83138 11.3007C7.83138 10.3174 7.03427 9.52026 6.05099 9.52026C5.06771 9.52026 4.2706 10.3174 4.2706 11.3007C4.2706 12.2839 5.06771 13.081 6.05099 13.081Z" fill="black"/>
<path opacity="0.2" d="M6.62432 28.4071C7.6076 28.4071 8.40471 27.61 8.40471 26.6267C8.40471 25.6434 7.6076 24.8463 6.62432 24.8463C5.64104 24.8463 4.84393 25.6434 4.84393 26.6267C4.84393 27.61 5.64104 28.4071 6.62432 28.4071Z" fill="black"/>
<path opacity="0.2" d="M13.1192 14.2912C12.7417 16.4213 13.5751 18.35 13.5751 18.35C13.5751 18.35 15.0206 16.8252 15.3982 14.6952C15.7757 12.5652 14.9423 10.6365 14.9423 10.6365C14.9423 10.6365 13.4967 12.1612 13.1192 14.2912Z" fill="black"/>
<path opacity="0.2" d="M7.20224 19.3473C9.23389 20.0902 11.2754 19.6135 11.2754 19.6135C11.2754 19.6135 10.023 17.9323 7.99133 17.1894C5.95968 16.4465 3.91815 16.9232 3.91815 16.9232C3.91815 16.9232 5.17058 18.6044 7.20224 19.3473Z" fill="black"/>
<path opacity="0.2" d="M6.85769 32.9191C8.28172 33.4398 9.71468 33.1001 9.71468 33.1001C9.71468 33.1001 8.83885 31.9162 7.41482 31.3955C5.9908 30.8748 4.55783 31.2144 4.55783 31.2144C4.55783 31.2144 5.43367 32.3984 6.85769 32.9191Z" fill="black"/>
<path d="M19.9589 24.4289C24.2651 24.4289 27.756 20.9381 27.756 16.6319C27.756 12.3257 24.2651 8.83484 19.9589 8.83484C15.6528 8.83484 12.1619 12.3257 12.1619 16.6319C12.1619 20.9381 15.6528 24.4289 19.9589 24.4289Z" fill="#D0CDE1"/>
<path d="M16.9132 22.6015C16.9132 22.6015 17.8878 27.231 17.8878 27.7183C17.8878 28.2056 22.5173 30.3985 22.5173 30.3985L26.6595 29.6676L28.1215 25.2817C28.1215 25.2817 25.6849 21.6269 25.6849 20.1649L16.9132 22.6015Z" fill="#D0CDE1"/>
<path d="M38.3893 27.8758L38.3231 28.0284C36.5196 32.1313 33.3923 35.511 29.4414 37.6269C25.4906 39.7428 20.9443 40.4727 16.5296 39.7C16.4095 39.6787 16.2895 39.6566 16.1698 39.6337C14.9327 39.3939 13.7213 39.0367 12.5521 38.5669C12.3621 38.4905 12.1736 38.4115 11.9864 38.3296C11.8586 38.274 11.7308 38.2166 11.6041 38.1574C10.4564 37.6257 9.36171 36.9861 8.3349 36.2474L7.41064 33.5663L7.93017 33.1698L8.99881 32.3539L10.139 31.4834L10.4355 31.2568L14.9095 27.8414L15.2396 27.5894L17.5651 25.8142L17.5657 25.8136C17.5657 25.8136 20.0805 29.9113 23.7355 28.6929C27.3905 27.4746 27.3106 23.9811 27.3106 23.9811L38.3893 27.8758Z" fill="#2F2E41"/>
<path d="M13.1973 10.3502C13.1973 10.3502 15.6729 4.9865 20.4176 6.22426C25.1624 7.46203 27.8442 9.31868 28.0505 11.1753C28.2568 13.032 27.9474 15.817 27.9474 15.817C27.9474 15.817 27.4317 12.0005 24.1309 12.8257C20.8302 13.6509 15.6729 13.032 15.6729 13.032L14.8477 20.4586C14.8477 20.4586 13.9194 19.1177 12.8879 19.9428C11.8564 20.768 9.89662 12.0005 13.1973 10.3502Z" fill="#2F2E41"/>
<path d="M12.5521 38.5669C12.3621 38.4905 12.1736 38.4114 11.9864 38.3296C11.8586 38.274 11.7308 38.2166 11.6041 38.1574C9.70586 37.2772 7.95708 36.1052 6.4213 34.684C6.96508 33.9432 7.41064 33.5663 7.41064 33.5663H11.0657L11.6136 35.4089L12.5521 38.5669Z" fill="#2F2E41"/>
<path d="M35.1876 27.4746L38.3231 28.0285C37.484 29.94 36.3507 31.7084 34.9645 33.2693L35.1876 27.4746Z" fill="#2F2E41"/>
</g>
<defs>
<clipPath id="clip0">
<rect width="40" height="40" fill="white"/>
</clipPath>
</defs>
</svg>
