<svg fill="none" xmlns="http://www.w3.org/2000/svg"><path d="M6.774 0H1024v700s-152.461-84.428-269.876-92.801C570.83 594.128 549.058 460.513 381.968 345.26c-151.516-104.51-80.096-189.136-202.534-226.016C-52.467 49.394 6.774 0 6.774 0Z" fill="#04D361"/><path d="M852.896 264.021 715.588 530l-350.296-66.438-.691-.128-19.855-3.767-89.223-16.925-20.523-3.89 28.438-57.816 4.797-9.75 4.507-9.151.406-.832 7.55-15.349 31.911-64.868 1.602-3.262 2.225-4.518.511-1.04 1.138-2.32 6.475-13.158 11.638-23.652 2.027-4.122 9.198-18.704L382.012 140l470.884 124.021Z" fill="#3F3D56"/><path d="M537.868 244.9a82.84 82.84 0 0 0-58.61-24.306 82.842 82.842 0 0 0-58.61 24.306 83.036 83.036 0 0 0-24.277 58.679 83.034 83.034 0 0 0 24.277 58.679l117.22 117.359 117.221-117.359a83.034 83.034 0 0 0 24.277-58.679 83.036 83.036 0 0 0-24.277-58.679 82.842 82.842 0 0 0-58.61-24.306 82.842 82.842 0 0 0-58.611 24.306Z" fill="#04D361"/><path d="M290.857 479.362h-3.485v1.163h3.485v-1.163ZM859 479.362h-3.484v1.163H859v-1.163Z" fill="#D0CDE1"/><path d="m364.514 463.702.087-.268 1.667-5.076-21.522 1.309 19.768 4.035ZM340.11 364.322l13.079 33.33S352 426.221 367.456 423.84c15.457-2.381-2.378-30.949-2.378-30.949l-9.511-34.521s-11.89-2.381-15.457 5.952ZM318.114 257.785c11.82 0 21.401-9.593 21.401-21.427 0-11.833-9.581-21.426-21.401-21.426-11.819 0-21.401 9.593-21.401 21.426 0 11.834 9.582 21.427 21.401 21.427Z" fill="#FFB9B9"/><path d="M302.063 242.905s-7.134 23.807-11.889 23.807c-4.756 0 32.102 14.285 32.102 14.285s-9.512-9.523 0-27.379l-20.213-10.713Z" fill="#FFB9B9"/><path d="m364.514 463.701.778-.139c6.249-1.128 10.233-2.46 10.488-4.012.494-2.971-3.745-18.512-8.862-35.646-5.737-19.193-12.572-40.385-15.104-48.17-.639-1.971-1.005-3.082-1.005-3.082l-2.288-14.332-2.468-15.424-58.259 15.477-8.322 14.279-1.771 5.175v.006l-2.607 7.634-5.14 15.041-14.431 42.233 89.223 16.925 19.768 4.035Z" fill="#2F2E41"/><path d="M297.308 264.332s16.486 4.382 21.321 9.333l8.403 4.951 10.7 22.617s8.323 3.571 8.323 19.046c0 15.474 11.89 41.662 11.89 41.662s8.322 7.142 2.377 10.714c-5.944 3.571-13.078 3.571-13.078 3.571s5.945-22.617-5.945-23.808c-11.89-1.19-17.834-2.38-19.023 0-1.189 2.381-33.291 36.902-46.37 33.331-13.078-3.572-5.945-39.282-5.945-39.282l10.701-83.326s8.323-1.19 13.079 0c4.756 1.191 3.567 1.191 3.567 1.191Z" fill="#575A89"/><path d="m256.883 364.322 13.078 33.33s-1.189 28.569 14.268 26.188c15.456-2.381-2.378-30.949-2.378-30.949l-9.512-34.521s-11.889-2.381-15.456 5.952Z" fill="#FFB9B9"/><path d="m283.04 264.332-2.378-1.191s-7.134-7.142-15.457 2.381c-8.322 9.523-16.645 59.518-16.645 59.518v15.475s-9.512 13.094-1.189 20.236c8.323 7.142 9.512 8.332 9.512 8.332s8.322-11.903 17.834-5.951l1.189-4.762a14.72 14.72 0 0 0 2.378-3.571c1.189-2.381 3.567 1.19 2.378-2.381-1.189-3.571 0-4.761 0-5.952 0-1.19 1.189-7.142 1.189-7.142l-1.189-36.901 2.378-38.091Z" fill="#575A89"/><path d="M344.78 231.282s17.386-37.951-28.052-37.91c0 0-27.876-14.662-49.105 19.34l-21.906 35.751 5.597-1.114.71 5.578 7.142 4.387 5.371-5.558-.888 8.508 61.535 26.164s-23.199-25.721-14.25-56.046l3.633 7.424 30.213-6.524Z" fill="#2F2E41"/><path d="M307.316 248.444c1.659 0 3.004-2.693 3.004-6.015 0-3.322-1.345-6.015-3.004-6.015s-3.004 2.693-3.004 6.015c0 3.322 1.345 6.015 3.004 6.015Z" fill="#FFB9B9"/></svg>