<svg width="112" height="80" viewBox="0 0 112 80" fill="none" xmlns="http://www.w3.org/2000/svg">
<g clip-path="url(#clip0_80:434)">
<path d="M47.5654 37.3661H2.29818C1.68888 37.3655 1.10473 37.1247 0.673882 36.6966C0.243038 36.2685 0.00068827 35.6881 0 35.0827V2.28349C0.000688637 1.67808 0.243038 1.09766 0.673882 0.669573C1.10473 0.241484 1.68888 0.000684234 2.29818 0H47.5654C48.1747 0.000683869 48.7588 0.241484 49.1897 0.669573C49.6205 1.09766 49.8629 1.67808 49.8636 2.28349V35.0827C49.8629 35.6881 49.6205 36.2685 49.1897 36.6966C48.7588 37.1247 48.1747 37.3655 47.5654 37.3661Z" fill="#E6E6E6"/>
<path d="M44.38 37.297H44.0694L39.2724 27.6953L39.1332 27.4185L35.5856 20.3161L29.5741 8.28285L29.4362 8.00606L25.4708 0.0692139H25.7828L29.7468 8.00606L29.8861 8.28285L35.7444 20.0103L35.8823 20.2871L39.4284 27.3839L44.38 37.297Z" fill="white"/>
<path d="M49.7938 8.00671H0.0695801V8.2835H49.7938V8.00671Z" fill="white"/>
<path d="M49.7938 20.011H35.6453V20.2878H49.7938V20.011Z" fill="white"/>
<path d="M13.5823 0.0692139H13.3037V37.4354H13.5823V0.0692139Z" fill="white"/>
<path d="M39.3586 27.4181H13.4431V27.6949H39.3586V27.4181Z" fill="white"/>
<path d="M29.6675 14.6697C29.6675 17.0287 26.1759 23.681 24.8645 26.0963C24.8169 26.1842 24.7462 26.2577 24.66 26.3088C24.5737 26.36 24.4752 26.3871 24.3747 26.3871C24.2742 26.3871 24.1756 26.36 24.0894 26.3088C24.0031 26.2577 23.9325 26.1842 23.8848 26.0963C22.5735 23.681 19.0819 17.0287 19.0819 14.6697C19.0819 13.275 19.6395 11.9373 20.6321 10.9511C21.6247 9.96483 22.971 9.41077 24.3747 9.41077C25.7784 9.41077 27.1247 9.96483 28.1173 10.9511C29.1098 11.9373 29.6675 13.275 29.6675 14.6697Z" fill="#04D361"/>
<path d="M24.3747 17.0224C25.6824 17.0224 26.7425 15.9691 26.7425 14.6697C26.7425 13.3703 25.6824 12.317 24.3747 12.317C23.0669 12.317 22.0068 13.3703 22.0068 14.6697C22.0068 15.9691 23.0669 17.0224 24.3747 17.0224Z" fill="#E6E6E6"/>
<path d="M24.3746 28.6473C24.9131 28.6473 25.3496 28.2136 25.3496 27.6786C25.3496 27.1436 24.9131 26.7098 24.3746 26.7098C23.8362 26.7098 23.3997 27.1436 23.3997 27.6786C23.3997 28.2136 23.8362 28.6473 24.3746 28.6473Z" fill="#04D361"/>
<path d="M24.4122 42.1906C23.3451 42.1904 22.3019 42.5047 21.4146 43.0937C20.5272 43.6827 19.8356 44.5199 19.4272 45.4995C19.0187 46.479 18.9118 47.5569 19.12 48.5969C19.3281 49.6368 19.842 50.592 20.5966 51.3418C21.3511 52.0915 22.3125 52.6021 23.3591 52.8089C24.4058 53.0157 25.4906 52.9095 26.4765 52.5037C27.4623 52.0979 28.3049 51.4107 28.8977 50.529C29.4905 49.6473 29.8068 48.6108 29.8067 47.5505C29.805 46.1295 29.2361 44.7671 28.2248 43.7623C27.2135 42.7574 25.8424 42.1922 24.4122 42.1906ZM24.4122 52.6157C23.4041 52.6159 22.4186 52.319 21.5803 51.7626C20.742 51.2062 20.0886 50.4153 19.7027 49.49C19.3168 48.5646 19.2157 47.5463 19.4122 46.5639C19.6087 45.5814 20.0941 44.679 20.8068 43.9706C21.5196 43.2622 22.4277 42.7797 23.4164 42.5842C24.4051 42.3886 25.43 42.4888 26.3614 42.872C27.2928 43.2552 28.089 43.9042 28.6492 44.737C29.2094 45.5697 29.5085 46.5489 29.5086 47.5505C29.507 48.8932 28.9696 50.1804 28.0142 51.1299C27.0589 52.0794 25.7635 52.6138 24.4122 52.6157V52.6157Z" fill="#E6E6E6"/>
<path d="M27.0671 44.9806C26.92 44.8687 26.7342 44.8194 26.5506 44.8435C26.367 44.8677 26.2006 44.9632 26.0878 45.1093L23.6811 48.2273L22.6629 47.4523C22.5901 47.3965 22.507 47.3556 22.4183 47.3318C22.3295 47.308 22.237 47.3019 22.1458 47.3137C22.0547 47.3255 21.9668 47.3551 21.8873 47.4008C21.8077 47.4464 21.7379 47.5072 21.682 47.5797C21.6261 47.6522 21.5852 47.7349 21.5615 47.8231C21.5379 47.9113 21.5319 48.0033 21.5441 48.0938C21.5563 48.1843 21.5864 48.2716 21.6325 48.3505C21.6787 48.4294 21.7401 48.4986 21.8132 48.5539L23.3858 49.7496L23.3928 49.7551C23.5132 49.8451 23.6599 49.8937 23.8106 49.8935C23.9179 49.8935 24.0239 49.8691 24.1202 49.8221C24.2165 49.7751 24.3007 49.7067 24.3663 49.6223L27.1965 45.9535C27.3091 45.8074 27.3587 45.6228 27.3344 45.4404C27.3102 45.258 27.214 45.0926 27.0671 44.9806Z" fill="#04D361"/>
<path d="M76.7105 58.3161L75.3664 55.1496L74.2131 52.433L73.2701 50.2104C73.102 49.8159 72.7832 49.5037 72.3837 49.3423C71.9842 49.1809 71.5367 49.1836 71.1391 49.3496L58.3194 54.7234C57.9234 54.8913 57.6101 55.2079 57.4479 55.6042C57.2856 56.0005 57.2875 56.4445 57.4531 56.8394L60.8948 64.9451C60.9777 65.1406 61.0986 65.3179 61.2505 65.467C61.4024 65.6161 61.5824 65.734 61.7802 65.8139C61.9779 65.8938 62.1896 65.9343 62.4031 65.9329C62.6166 65.9315 62.8278 65.8884 63.0245 65.8059L75.8442 60.4335C76.2413 60.2664 76.5555 59.9497 76.7179 59.5527C76.8803 59.1558 76.8776 58.7111 76.7105 58.3161ZM75.7035 60.1027L62.8852 65.4751C62.5761 65.6047 62.228 65.607 61.9172 65.4817C61.6064 65.3564 61.3584 65.1136 61.2276 64.8067L57.7859 56.701C57.6783 56.4475 57.6582 56.1658 57.7289 55.8997C57.7587 55.7806 57.8066 55.6668 57.8709 55.5621C58.0085 55.3352 58.2147 55.1574 58.4601 55.0542L71.2798 49.6817C71.5407 49.5721 71.8312 49.5531 72.1044 49.6278C72.2231 49.6593 72.3363 49.7088 72.44 49.7745C72.6616 49.9104 72.8349 50.1117 72.9359 50.3502L73.922 52.6738V52.6752L74.9903 55.1898L76.3776 58.4558C76.5079 58.7631 76.5101 59.1091 76.3837 59.418C76.2573 59.7268 76.0126 59.9731 75.7035 60.1027L75.7035 60.1027Z" fill="#CCCCCC"/>
<path d="M66.9823 57.5339C66.64 57.6781 66.2614 57.7144 65.8976 57.6377L57.568 55.8652L57.6437 55.5142L65.9734 57.2867C66.2608 57.3466 66.5598 57.3192 66.8313 57.2079C67.1028 57.0965 67.3342 56.9065 67.4955 56.6626L72.2289 49.4388L72.5318 49.6348L67.7983 56.8586C67.6002 57.1595 67.316 57.3947 66.9823 57.5339Z" fill="#CCCCCC"/>
<path d="M66.9637 59.685C68.1613 59.685 69.1321 58.7204 69.1321 57.5305C69.1321 56.3407 68.1613 55.3761 66.9637 55.3761C65.7662 55.3761 64.7954 56.3407 64.7954 57.5305C64.7954 58.7204 65.7662 59.685 66.9637 59.685Z" fill="#04D361"/>
<path d="M90.852 36.5108C90.852 36.5108 88.031 34.7406 85.3585 36.8059L83.5768 55.2464C83.5768 55.2464 90.2581 60.4097 91.8913 55.5414L90.852 36.5108Z" fill="#04D361"/>
<path d="M91.5408 78.4245H93.2484L93.8171 71.9039L91.5405 71.8801L91.5408 78.4245Z" fill="#FFB8B8"/>
<path d="M96.5416 79.9998L91.1749 80L91.1748 77.9398L94.468 77.9396C95.018 77.9396 95.5454 78.1566 95.9342 78.543C96.3231 78.9293 96.5416 79.4533 96.5416 79.9998Z" fill="#2F2E41"/>
<path d="M85.3687 78.4245H83.6611L82.8486 71.8801H85.369L85.3687 78.4245Z" fill="#FFB8B8"/>
<path d="M82.4413 77.9397H85.7345V79.9999H80.3678C80.3678 79.4535 80.5863 78.9295 80.9751 78.5431C81.364 78.1568 81.8914 77.9397 82.4413 77.9397Z" fill="#2F2E41"/>
<path d="M95.232 55.3202L93.7473 77.3013L91.446 77.2275L88.4023 59.5984L85.5813 77.0063L82.9087 77.1538L82.1664 54.435C82.1664 54.435 93.4504 51.9271 95.232 55.3202Z" fill="#2F2E41"/>
<path d="M88.226 34.6448C90.1154 34.6448 91.647 33.123 91.647 31.2458C91.647 29.3685 90.1154 27.8467 88.226 27.8467C86.3367 27.8467 84.8051 29.3685 84.8051 31.2458C84.8051 33.123 86.3367 34.6448 88.226 34.6448Z" fill="#FFB8B8"/>
<path d="M90.3323 35.847L91.2232 36.4371C91.2232 36.4371 94.935 36.4371 95.2319 38.65C95.5289 40.8629 96.3455 55.9841 95.4547 55.9841C94.5638 55.9841 94.4153 54.8039 94.4153 54.8039C94.4153 54.8039 93.8215 54.9514 92.6337 56.1316C91.4459 57.3118 90.7035 57.3118 90.2581 55.5415C89.8127 53.7712 86.8432 40.199 89.6642 37.6911L90.3323 35.847Z" fill="#2F2E41"/>
<path d="M86.0266 35.847L85.1358 36.4371C85.1358 36.4371 81.424 36.4371 81.127 38.65C80.8301 40.8629 80.0135 55.9841 80.9043 55.9841C81.7951 55.9841 81.9436 54.8039 81.9436 54.8039C81.9436 54.8039 82.5375 54.9514 83.7253 56.1316C84.9131 57.3118 85.6554 57.3118 86.1009 55.5415C86.5463 53.7712 89.5157 40.199 86.6947 37.6911L86.0266 35.847Z" fill="#2F2E41"/>
<path d="M91.0017 33.3184C91.256 33.0521 91.4248 32.7167 91.4867 32.3548C91.5486 31.9929 91.5007 31.621 91.3492 31.2862C91.1977 30.9514 90.9494 30.6689 90.6359 30.4748C90.3224 30.2806 89.9579 30.1834 89.5886 30.1957C89.1156 30.2114 88.6699 30.4038 88.2184 30.5449C87.5342 30.7762 86.8042 30.8415 86.0894 30.7354C85.3704 30.6245 84.7215 30.2438 84.2765 29.6718C83.8532 29.0938 83.7212 28.2921 84.0202 27.6419C84.3654 26.8914 85.1718 26.4778 85.9303 26.1418C86.2362 25.9896 86.563 25.8829 86.9001 25.8252C87.069 25.7973 87.2418 25.8044 87.4078 25.846C87.5738 25.8875 87.7294 25.9627 87.8648 26.0668C88.078 26.249 88.2029 26.5228 88.4349 26.6807C88.696 26.8584 89.0352 26.8537 89.3501 26.885C90.0594 26.9556 90.7303 27.239 91.2736 27.6977C91.8168 28.1564 92.2067 28.7685 92.3913 29.4527C92.5758 30.1368 92.5464 30.8606 92.3069 31.5278C92.0674 32.1949 91.6291 32.7738 91.0504 33.1875L91.0017 33.3184Z" fill="#2F2E41"/>
<path d="M73.5498 54.0026C73.5035 53.7902 73.5046 53.5703 73.5531 53.3583C73.6016 53.1464 73.6962 52.9476 73.8304 52.7759C73.9646 52.6043 74.135 52.4639 74.3297 52.3648C74.5243 52.2657 74.7385 52.2101 74.9571 52.2022L77.23 49.0212L78.695 50.5039L76.5258 53.7396C76.515 54.1053 76.3695 54.4544 76.117 54.7208C75.8644 54.9871 75.5222 55.1521 75.1554 55.1845C74.7886 55.2169 74.4225 55.1145 74.1266 54.8967C73.8307 54.6789 73.6254 54.3607 73.5498 54.0026Z" fill="#FFB8B8"/>
<path d="M93.6951 56.9064C93.5351 56.7582 93.4097 56.577 93.3279 56.3754C93.246 56.1739 93.2096 55.9569 93.2212 55.7399C93.2329 55.5229 93.2923 55.311 93.3952 55.1192C93.4982 54.9275 93.6422 54.7604 93.8171 54.63L93.8574 50.7291L95.9119 51.1164L95.9883 55.0034C96.1894 55.3099 96.2704 55.6791 96.2158 56.041C96.1613 56.4029 95.9751 56.7323 95.6924 56.9669C95.4098 57.2015 95.0503 57.3249 94.6822 57.3138C94.3141 57.3026 93.9629 57.1577 93.6951 56.9064Z" fill="#FFB8B8"/>
<path d="M82.2312 47.693L81.6467 38.4287L81.481 37.7814C81.481 37.7814 75.571 45.3325 75.5571 51.0132C75.5571 51.0132 78.4524 52.4147 78.8978 51.3821C79.0727 50.9765 79.6703 50.3752 82.2312 47.693Z" fill="#2F2E41"/>
<path d="M94.7123 38.4287L95.2465 38.765C95.2465 38.765 97.1599 47.1316 96.6425 52.7386C96.6425 52.7386 93.5988 54.14 93.1533 53.1074C92.7079 52.0747 94.7123 38.4287 94.7123 38.4287Z" fill="#2F2E41"/>
<path d="M111.861 79.9913H58.7936C58.7566 79.9913 58.7212 79.9767 58.6951 79.9507C58.669 79.9248 58.6543 79.8896 58.6543 79.8529C58.6543 79.8162 58.669 79.781 58.6951 79.755C58.7212 79.7291 58.7566 79.7145 58.7936 79.7145H111.861C111.898 79.7145 111.933 79.7291 111.959 79.755C111.985 79.781 112 79.8162 112 79.8529C112 79.8896 111.985 79.9248 111.959 79.9507C111.933 79.9767 111.898 79.9913 111.861 79.9913Z" fill="#3F3D56"/>
</g>
<defs>
<clipPath id="clip0_80:434">
<rect width="112" height="80" fill="white"/>
</clipPath>
</defs>
</svg>
