<svg width="100" height="80" viewBox="0 0 100 80" fill="none" xmlns="http://www.w3.org/2000/svg">
<path d="M24.3099 33.753C23.636 30.0823 21.0808 30.0823 20.332 33.753C18.4817 42.8238 24.8782 71.5882 26.8671 72.7176H35.3911C37.9483 71.5882 39.3689 69.3294 39.6531 65.3765C39.9373 61.4235 38.9763 63.1806 39.0849 59.1647C39.2466 53.1823 41.3579 45.8314 39.0849 45.3294C34.5796 44.3345 33.1181 55.2118 33.1181 55.2118C30.8866 51.707 29.267 49.021 28.0036 46.3146M24.3099 33.753C24.8782 29.8 27.7195 30.6471 28.0036 33.753V46.3146M24.3099 33.753C25.3132 39.2174 26.3552 42.7833 28.0036 46.3146M75.1501 36.2941C75.2513 35.8358 75.3524 35.3655 75.4539 34.8824C76.0221 29.8 79.4317 30.3647 80 34.8824C79.115 50.0371 77.5894 58.3559 73.7491 73H64.6568C61.8502 70.876 59.9217 68.7585 60.1107 65.9412C60.3948 61.7059 60.7864 52.5329 59.8265 48.7176C59.2583 46.4588 61.8155 42.5059 64.0885 47.5882L66.6457 55.2118C68.6876 52.6264 70.2029 50.3366 71.4189 47.8706M75.1501 36.2941C74.0791 41.1471 73.0029 44.6583 71.4189 47.8706M75.1501 36.2941V33.1882C75.1501 30.6471 71.7601 30.3647 71.7601 33.1882L71.4189 47.8706" stroke="#212D22" stroke-width="2"/>
<path d="M68 19.1112C68 29.6665 49.7204 38 49.7204 38C49.7204 38 31.722 30.7776 32.0033 18.8335C32.1471 12.7238 36.2456 8.39603 40.7212 8C46.9082 7.99996 49.7204 12.4446 49.7204 12.4446C49.7204 12.4446 52.8139 7.99999 58.4384 8C65.1878 8.00001 68 15.663 68 19.1112Z" fill="#04D361"/>
</svg>
