<svg width="410" height="319" viewBox="0 0 410 319" fill="none" xmlns="http://www.w3.org/2000/svg">
<g clip-path="url(#clip0_80:497)">
<path d="M233.456 155.981C242.682 155.981 250.161 148.489 250.161 139.246C250.161 130.003 242.682 122.51 233.456 122.51C224.23 122.51 216.751 130.003 216.751 139.246C216.751 148.489 224.23 155.981 233.456 155.981Z" fill="#E6E6E6"/>
<path d="M274.396 160.752L256.939 143.263C258.277 141.178 259.184 138.845 259.606 136.402C260.028 133.959 259.956 131.457 259.394 129.043C258.833 126.628 257.793 124.351 256.338 122.347C254.882 120.342 253.039 118.651 250.919 117.373C246.927 114.984 242.185 114.184 237.631 115.131C233.078 116.079 229.046 118.705 226.334 122.489C223.838 125.995 222.64 130.262 222.944 134.557C223.249 138.853 225.037 142.907 228.002 146.024C230.968 149.141 234.924 151.126 239.191 151.638C243.459 152.149 247.771 151.155 251.386 148.826L268.843 166.315C269.58 167.053 270.578 167.466 271.619 167.466C272.66 167.466 273.659 167.051 274.395 166.314C275.131 165.576 275.545 164.576 275.545 163.533C275.545 162.49 275.132 161.49 274.396 160.752ZM250.735 142.61C248.572 144.777 245.725 146.126 242.681 146.426C239.637 146.727 236.583 145.96 234.039 144.258C231.496 142.555 229.62 140.022 228.732 137.089C227.844 134.156 227.999 131.006 229.169 128.174C230.34 125.343 232.454 123.006 235.152 121.561C237.85 120.117 240.964 119.654 243.964 120.252C246.965 120.849 249.665 122.471 251.606 124.84C253.546 127.209 254.607 130.179 254.607 133.244C254.609 134.983 254.268 136.707 253.604 138.314C252.939 139.921 251.964 141.381 250.735 142.61Z" fill="#3F3D56"/>
<path d="M400.938 186.549C445.582 236.011 316.167 307.294 211.597 307.294C107.027 307.294 34.6812 252.063 22.2565 186.549C-7.86899 27.7014 278.933 -73.2614 211.597 65.8046C113.448 268.509 365.78 147.597 400.938 186.549Z" fill="#E6E6E6"/>
<path d="M380.908 198.255C425.551 247.718 296.137 319 191.567 319C86.9966 319 14.6504 263.769 2.22579 198.255C-27.8997 39.4076 258.903 -61.5552 191.567 77.5108C93.4167 280.215 345.75 159.303 380.908 198.255Z" fill="#3F3D56"/>
<path d="M62.4268 82.2885C31.1005 80.9066 6.81158 74.1368 7.13067 66.8763C7.32198 62.5233 16.1876 59.023 31.4542 57.2732C31.5089 57.2665 31.5643 57.2708 31.6173 57.2857C31.6702 57.3006 31.7198 57.3259 31.763 57.36C31.8062 57.3942 31.8422 57.4366 31.869 57.4848C31.8958 57.5329 31.9128 57.5859 31.919 57.6407C31.9253 57.6955 31.9207 57.751 31.9054 57.804C31.8902 57.8569 31.8646 57.9064 31.8302 57.9494C31.7959 57.9925 31.7533 58.0283 31.7051 58.0548C31.6568 58.0813 31.6038 58.098 31.5491 58.1039C17.1679 59.7524 8.13084 63.1279 7.96447 66.913C7.67591 73.4788 32.6334 80.1373 62.4635 81.4531C92.2936 82.769 117.739 78.3338 118.027 71.7681C118.194 67.967 109.432 63.7972 95.1596 60.8862C95.1058 60.8753 95.0546 60.854 95.009 60.8233C94.9635 60.7927 94.9244 60.7533 94.894 60.7074C94.8636 60.6616 94.8426 60.6102 94.8321 60.5562C94.8216 60.5022 94.8218 60.4467 94.8328 60.3928C94.8437 60.3389 94.8652 60.2877 94.896 60.2421C94.9267 60.1965 94.9661 60.1575 95.012 60.1272C95.0578 60.0969 95.1091 60.076 95.1631 60.0656C95.217 60.0552 95.2724 60.0556 95.3262 60.0668C110.475 63.1566 119.053 67.435 118.861 71.8049C118.542 79.0654 93.753 83.6703 62.4268 82.2885Z" fill="#04D361"/>
<path d="M34.6044 83.5044C37.225 88.4919 41.107 92.7025 45.8621 95.7149C50.6171 98.7273 56.0784 100.436 61.6995 100.67C67.3206 100.903 72.9044 99.654 77.8923 97.0468C82.8801 94.4395 87.0971 90.5657 90.1213 85.8129C71.5874 86.0632 53.0538 85.2925 34.6044 83.5044Z" fill="#04D361"/>
<path d="M93.5867 77.0187C95.1638 72.2793 95.6183 67.2371 94.9141 62.2913C94.2098 57.3455 92.3663 52.6318 89.5292 48.5233C86.6922 44.4147 82.9396 41.0241 78.5684 38.6198C74.1972 36.2154 69.3274 34.8634 64.3445 34.6706C59.3616 34.4778 54.4022 35.4496 49.859 37.5091C45.3157 39.5685 41.3133 42.6591 38.1685 46.5362C35.0236 50.4134 32.8227 54.9706 31.7398 59.8472C30.657 64.7239 30.722 69.7861 31.9296 74.6333C52.2925 78.0964 73.0178 78.8983 93.5867 77.0187Z" fill="#04D361"/>
<path d="M70.4556 55.4375C72.5299 55.4375 74.2114 53.7529 74.2114 51.6748C74.2114 49.5967 72.5299 47.9121 70.4556 47.9121C68.3813 47.9121 66.6998 49.5967 66.6998 51.6748C66.6998 53.7529 68.3813 55.4375 70.4556 55.4375Z" fill="white"/>
<path d="M51.1258 70.0663C54.5829 70.0663 57.3855 67.2586 57.3855 63.7951C57.3855 60.3316 54.5829 57.5239 51.1258 57.5239C47.6687 57.5239 44.8662 60.3316 44.8662 63.7951C44.8662 67.2586 47.6687 70.0663 51.1258 70.0663Z" fill="white"/>
<path d="M145.601 63.9234C147.906 63.9234 149.774 62.0516 149.774 59.7427C149.774 57.4338 147.906 55.562 145.601 55.562C143.296 55.562 141.428 57.4338 141.428 59.7427C141.428 62.0516 143.296 63.9234 145.601 63.9234Z" fill="#04D361"/>
<path d="M51.2892 191.856C52.672 191.856 53.793 190.733 53.793 189.347C53.793 187.962 52.672 186.839 51.2892 186.839C49.9063 186.839 48.7853 187.962 48.7853 189.347C48.7853 190.733 49.9063 191.856 51.2892 191.856Z" fill="#E6E6E6"/>
<path d="M226.559 277.98C227.941 277.98 229.062 276.857 229.062 275.471C229.062 274.086 227.941 272.963 226.559 272.963C225.176 272.963 224.055 274.086 224.055 275.471C224.055 276.857 225.176 277.98 226.559 277.98Z" fill="#E6E6E6"/>
<path d="M63.3911 143.358C64.0825 143.358 64.6431 142.797 64.6431 142.104C64.6431 141.412 64.0825 140.85 63.3911 140.85C62.6997 140.85 62.1392 141.412 62.1392 142.104C62.1392 142.797 62.6997 143.358 63.3911 143.358Z" fill="#E6E6E6"/>
<path d="M166.884 237.008C167.575 237.008 168.135 236.447 168.135 235.754C168.135 235.061 167.575 234.5 166.884 234.5C166.192 234.5 165.632 235.061 165.632 235.754C165.632 236.447 166.192 237.008 166.884 237.008Z" fill="#E6E6E6"/>
<path d="M355.089 224.884C355.781 224.884 356.341 224.322 356.341 223.629C356.341 222.937 355.781 222.375 355.089 222.375C354.398 222.375 353.838 222.937 353.838 223.629C353.838 224.322 354.398 224.884 355.089 224.884Z" fill="#E6E6E6"/>
<path d="M296.249 262.093C296.94 262.093 297.501 261.531 297.501 260.838C297.501 260.146 296.94 259.584 296.249 259.584C295.558 259.584 294.997 260.146 294.997 260.838C294.997 261.531 295.558 262.093 296.249 262.093Z" fill="#E6E6E6"/>
<path d="M234.905 216.94C235.596 216.94 236.157 216.379 236.157 215.686C236.157 214.993 235.596 214.432 234.905 214.432C234.213 214.432 233.653 214.993 233.653 215.686C233.653 216.379 234.213 216.94 234.905 216.94Z" fill="#E6E6E6"/>
<path d="M155.616 93.189C156.308 93.189 156.868 92.6274 156.868 91.9347C156.868 91.242 156.308 90.6804 155.616 90.6804C154.925 90.6804 154.364 91.242 154.364 91.9347C154.364 92.6274 154.925 93.189 155.616 93.189Z" fill="#E6E6E6"/>
<path d="M165.632 31.3133C166.323 31.3133 166.884 30.7518 166.884 30.0591C166.884 29.3664 166.323 28.8048 165.632 28.8048C164.94 28.8048 164.38 29.3664 164.38 30.0591C164.38 30.7518 164.94 31.3133 165.632 31.3133Z" fill="#E6E6E6"/>
<path d="M159.789 291.776C160.481 291.776 161.041 291.215 161.041 290.522C161.041 289.829 160.481 289.268 159.789 289.268C159.098 289.268 158.537 289.829 158.537 290.522C158.537 291.215 159.098 291.776 159.789 291.776Z" fill="#E6E6E6"/>
<path d="M98.0277 265.438C98.7191 265.438 99.2797 264.876 99.2797 264.183C99.2797 263.491 98.7191 262.929 98.0277 262.929C97.3363 262.929 96.7758 263.491 96.7758 264.183C96.7758 264.876 97.3363 265.438 98.0277 265.438Z" fill="#E6E6E6"/>
<path d="M293.745 220.285C294.437 220.285 294.997 219.723 294.997 219.031C294.997 218.338 294.437 217.776 293.745 217.776C293.054 217.776 292.493 218.338 292.493 219.031C292.493 219.723 293.054 220.285 293.745 220.285Z" fill="#E6E6E6"/>
<path d="M61.9176 97.7462C63.9919 97.7462 65.6734 96.0616 65.6734 93.9835C65.6734 91.9054 63.9919 90.2208 61.9176 90.2208C59.8434 90.2208 58.1619 91.9054 58.1619 93.9835C58.1619 96.0616 59.8434 97.7462 61.9176 97.7462Z" fill="white"/>
<path d="M146.853 151.72C146.853 162.958 129.51 189.145 124.441 196.558C124.288 196.782 124.083 196.965 123.844 197.092C123.604 197.218 123.337 197.285 123.066 197.285C122.795 197.285 122.528 197.218 122.289 197.092C122.049 196.965 121.844 196.782 121.691 196.558C116.623 189.145 99.2797 162.958 99.2797 151.72C99.2797 148.591 99.8949 145.492 101.09 142.6C102.286 139.709 104.038 137.082 106.247 134.869C108.455 132.656 111.078 130.901 113.964 129.704C116.849 128.506 119.943 127.89 123.066 127.89C126.19 127.89 129.283 128.506 132.169 129.704C135.055 130.901 137.677 132.656 139.886 134.869C142.095 137.082 143.847 139.709 145.042 142.6C146.238 145.492 146.853 148.591 146.853 151.72Z" fill="white"/>
<path d="M123.066 162.172C129.75 162.172 135.168 156.744 135.168 150.048C135.168 143.352 129.75 137.923 123.066 137.923C116.383 137.923 110.964 143.352 110.964 150.048C110.964 156.744 116.383 162.172 123.066 162.172Z" fill="#04D361"/>
<path d="M122.858 210.251C130.578 210.251 136.837 209.034 136.837 207.534C136.837 206.033 130.578 204.816 122.858 204.816C115.137 204.816 108.878 206.033 108.878 207.534C108.878 209.034 115.137 210.251 122.858 210.251Z" fill="white"/>
<path d="M340.879 132.915C340.774 133.121 340.684 133.335 340.612 133.554L320.672 139.105L317.078 135.582L311.062 140.32L316.819 147.176C317.284 147.73 317.916 148.118 318.62 148.282C319.323 148.445 320.061 148.376 320.722 148.083L342.262 138.557C342.993 139.066 343.86 139.339 344.75 139.341C345.64 139.343 346.509 139.073 347.242 138.568C347.975 138.063 348.537 137.347 348.853 136.514C349.17 135.681 349.226 134.772 349.014 133.906C348.802 133.041 348.332 132.26 347.666 131.669C347.001 131.078 346.171 130.703 345.288 130.596C344.405 130.488 343.51 130.652 342.723 131.067C341.935 131.481 341.292 132.126 340.88 132.915H340.879Z" fill="#FFB8B8"/>
<path d="M319.969 139.431L312.485 145.267C312.272 145.433 312.026 145.551 311.763 145.613C311.5 145.675 311.227 145.68 310.963 145.627C310.698 145.574 310.448 145.464 310.229 145.306C310.011 145.147 309.829 144.943 309.696 144.708L305.045 136.46C304.203 135.364 303.829 133.978 304.005 132.606C304.182 131.234 304.895 129.988 305.987 129.141C307.079 128.295 308.462 127.917 309.831 128.09C311.201 128.263 312.447 128.974 313.295 130.066L320.113 136.585C320.308 136.772 320.461 136.999 320.56 137.25C320.66 137.501 320.705 137.771 320.691 138.041C320.678 138.311 320.606 138.575 320.481 138.815C320.357 139.054 320.182 139.265 319.969 139.431V139.431Z" fill="#04D361"/>
<path d="M342.792 130.155L350.382 133.576C350.7 133.719 350.948 133.983 351.071 134.31C351.195 134.636 351.184 134.998 351.041 135.317L350.142 137.318C350.248 137.366 350.33 137.454 350.372 137.563C350.413 137.671 350.409 137.792 350.362 137.898L350.003 138.699C349.955 138.804 349.867 138.887 349.758 138.928C349.65 138.97 349.529 138.966 349.423 138.919L349.064 139.719C349.17 139.767 349.252 139.855 349.293 139.964C349.334 140.073 349.331 140.193 349.284 140.299L348.924 141.1C348.876 141.206 348.788 141.288 348.68 141.33C348.571 141.371 348.451 141.367 348.345 141.32L343.492 152.126C343.349 152.444 343.086 152.693 342.76 152.816C342.434 152.94 342.073 152.929 341.755 152.786L334.165 149.365C333.847 149.222 333.599 148.958 333.475 148.631C333.352 148.305 333.363 147.943 333.506 147.624L341.054 130.815C341.197 130.497 341.46 130.248 341.786 130.125C342.112 130.001 342.474 130.012 342.792 130.155Z" fill="#3F3D56"/>
<path d="M335.543 148.3L341.632 151.048C341.937 151.184 342.284 151.195 342.596 151.076C342.909 150.958 343.162 150.72 343.301 150.416L346.113 144.149L347.09 141.977L349.635 136.307C349.771 136.002 349.781 135.655 349.663 135.343C349.544 135.03 349.308 134.777 349.004 134.639L347.09 133.774L342.911 131.892C342.606 131.755 342.259 131.746 341.947 131.865C341.635 131.984 341.383 132.223 341.246 132.528L338.784 138.009L335.981 144.25L334.912 146.633C334.776 146.938 334.766 147.285 334.884 147.597C335.002 147.91 335.239 148.163 335.543 148.3Z" fill="#F2F2F2"/>
<path d="M322.82 225.948L327.936 225.947L330.37 206.177L322.819 206.178L322.82 225.948Z" fill="#FFB8B8"/>
<path d="M321.515 224.274L331.591 224.274H331.591C332.434 224.274 333.269 224.44 334.048 224.764C334.827 225.087 335.535 225.561 336.131 226.158C336.728 226.755 337.201 227.464 337.523 228.245C337.846 229.025 338.012 229.862 338.012 230.707V230.916L321.516 230.916L321.515 224.274Z" fill="#2F2E41"/>
<path d="M336.174 224.694L341.29 224.693L343.724 204.923L336.173 204.923L336.174 224.694Z" fill="#FFB8B8"/>
<path d="M334.869 223.02L344.945 223.02H344.945C345.788 223.02 346.623 223.186 347.402 223.509C348.181 223.833 348.889 224.306 349.485 224.904C350.081 225.501 350.554 226.21 350.877 226.991C351.2 227.771 351.366 228.608 351.366 229.452V229.661L334.869 229.662L334.869 223.02Z" fill="#2F2E41"/>
<path d="M299.871 179.556C300.962 182.793 303.029 185.61 305.788 187.619C308.547 189.627 311.86 190.726 315.27 190.764L315.529 190.769C318.17 190.844 321.271 189.991 324.313 188.766C330.322 186.345 336.094 182.47 337.625 181.404L335.03 206.401L333.978 216.535C333.951 216.797 333.98 217.062 334.062 217.312C334.144 217.563 334.277 217.793 334.453 217.989C334.629 218.185 334.844 218.341 335.084 218.449C335.325 218.556 335.585 218.612 335.848 218.613H342.328C342.744 218.613 343.148 218.475 343.477 218.221C343.806 217.967 344.042 217.611 344.148 217.208L354.848 176.383C355.168 175.161 355.194 173.88 354.923 172.646C354.651 171.412 354.091 170.26 353.287 169.287C352.483 168.313 351.459 167.545 350.3 167.046C349.141 166.548 347.881 166.333 346.622 166.42L324.397 167.946L325.949 161.725L306.11 160.404L306.052 160.445C305.576 160.792 305.113 161.156 304.671 161.537C303.564 162.474 302.584 163.55 301.753 164.739C300.268 166.872 299.32 169.335 298.992 171.915C298.665 174.496 298.966 177.118 299.871 179.556Z" fill="#2F2E41"/>
<path d="M299.871 179.556C300.962 182.793 303.029 185.61 305.788 187.619C308.547 189.627 311.86 190.726 315.27 190.764C318.531 189.111 321.677 187.241 324.689 185.166L324.313 188.766L321.042 220.298C321.015 220.56 321.044 220.825 321.125 221.075C321.207 221.325 321.34 221.556 321.516 221.752C321.693 221.947 321.908 222.104 322.148 222.211C322.388 222.319 322.648 222.375 322.911 222.375H329.392C329.807 222.376 330.211 222.238 330.541 221.984C330.87 221.73 331.106 221.373 331.211 220.971L335.03 206.401L341.911 180.145C342.232 178.923 342.258 177.642 341.986 176.408C341.715 175.174 341.154 174.023 340.35 173.049C339.546 172.076 338.523 171.308 337.364 170.809C336.205 170.311 334.944 170.096 333.686 170.182L311.46 171.708L313.012 165.487L301.753 164.739C300.268 166.872 299.32 169.335 298.992 171.915C298.665 174.496 298.966 177.118 299.871 179.556Z" fill="#2F2E41"/>
<path d="M304.642 162.979L304.493 162.961L301.031 145.909C301.002 145.761 298.172 131.054 306.847 123.365L306.998 122.312C307.037 122.043 307.133 121.785 307.281 121.557C307.429 121.329 307.624 121.135 307.854 120.99C308.083 120.845 308.342 120.751 308.611 120.715C308.88 120.679 309.154 120.703 309.413 120.783L317.586 123.323C318.049 123.466 318.438 123.782 318.673 124.206C318.908 124.631 318.97 125.129 318.846 125.598L318.051 128.626C319.153 129.922 332.121 145.563 327.604 157.613L325.581 165.537L304.642 162.979Z" fill="#04D361"/>
<path d="M338.578 149.671C338.382 149.794 338.197 149.933 338.023 150.085L318.035 144.709L316.728 139.845L309.144 140.862L310.622 149.698C310.741 150.411 311.088 151.067 311.612 151.566C312.135 152.066 312.805 152.381 313.523 152.466L336.905 155.233C337.277 156.043 337.885 156.721 338.65 157.175C339.416 157.63 340.301 157.841 341.188 157.779C342.075 157.718 342.923 157.387 343.618 156.831C344.314 156.275 344.823 155.52 345.08 154.667C345.337 153.813 345.328 152.902 345.055 152.054C344.782 151.206 344.257 150.461 343.551 149.919C342.846 149.376 341.992 149.062 341.103 149.018C340.215 148.974 339.334 149.201 338.578 149.671H338.578Z" fill="#FFB8B8"/>
<path d="M317.265 144.632L307.858 145.846C307.591 145.88 307.319 145.856 307.061 145.776C306.804 145.696 306.566 145.561 306.365 145.381C306.164 145.2 306.004 144.978 305.897 144.73C305.789 144.483 305.736 144.214 305.741 143.944L305.92 134.473C305.752 133.1 306.133 131.716 306.982 130.624C307.83 129.533 309.076 128.823 310.446 128.65C311.815 128.478 313.198 128.856 314.29 129.703C315.381 130.55 316.093 131.796 316.269 133.168L318.832 142.255C318.906 142.515 318.922 142.788 318.881 143.055C318.839 143.322 318.741 143.577 318.592 143.803C318.443 144.028 318.248 144.219 318.019 144.362C317.79 144.505 317.533 144.597 317.265 144.632Z" fill="#04D361"/>
<path d="M314.617 118.469C320.278 118.469 324.867 113.871 324.867 108.2C324.867 102.529 320.278 97.9319 314.617 97.9319C308.957 97.9319 304.368 102.529 304.368 108.2C304.368 113.871 308.957 118.469 314.617 118.469Z" fill="#FFB8B8"/>
<path d="M314.078 109.058L312.795 106.717C310.364 116.639 314.658 124.85 314.658 124.85L297.994 117.073L298.152 114.314L296.503 116.189L294.134 114.881L293.821 113.091L292.033 113.535L298.561 101.667C304.897 90.3732 314.108 94.685 314.108 94.685C328.762 93.9871 326.972 108.471 326.972 108.471L314.078 109.058Z" fill="#2F2E41"/>
<path d="M197.404 185.58C199.767 184.062 196.893 175.346 190.985 166.113C185.076 156.88 178.371 150.625 176.008 152.143C173.645 153.661 176.519 162.376 182.427 171.609C188.335 180.843 195.04 187.097 197.404 185.58Z" fill="#3F3D56"/>
</g>
<defs>
<clipPath id="clip0_80:497">
<rect width="410" height="319" fill="white"/>
</clipPath>
</defs>
</svg>
