<svg width="104" height="81" viewBox="0 0 104 81" fill="none" xmlns="http://www.w3.org/2000/svg">
<g clip-path="url(#clip0_80:399)">
<path d="M24.3861 73.7317C21.3277 73.7317 18.8484 68.641 18.8484 62.3612C18.8484 56.0814 21.3277 50.9907 24.3861 50.9907C27.4444 50.9907 29.9237 56.0814 29.9237 62.3612C29.9237 68.641 27.4444 73.7317 24.3861 73.7317Z" fill="#3F3D56"/>
<path d="M24.8975 80.9729C22.6796 67.5818 24.8752 54.2391 24.8976 54.106L25.329 54.1796C25.3067 54.312 23.1237 67.5846 25.3291 80.9007L24.8975 80.9729Z" fill="#CACACA"/>
<path d="M29.2615 59.9162L29.4679 60.3046L24.4604 63L24.254 62.6116L29.2615 59.9162Z" fill="#CACACA"/>
<path d="M19.1755 61.2664L24.1824 63.9633L23.9758 64.3516L18.9689 61.6547L19.1755 61.2664Z" fill="#CACACA"/>
<path d="M11.0808 66.6051C5.09899 66.6051 0.249794 56.6482 0.249794 44.3657C0.249794 32.0832 5.09899 22.1263 11.0808 22.1263C17.0626 22.1263 21.9117 32.0832 21.9117 44.3657C21.9117 56.6482 17.0626 66.6051 11.0808 66.6051Z" fill="#E6E6E6"/>
<path d="M12.2872 80.7336C7.95509 54.5767 12.2435 28.5151 12.2873 28.2549L12.7188 28.3284C12.6751 28.588 8.39922 54.5795 12.7189 80.6613L12.2872 80.7336Z" fill="#CACACA"/>
<path d="M20.7152 39.7691L20.9216 40.1574L11.1272 45.4294L10.9208 45.0411L20.7152 39.7691Z" fill="#CACACA"/>
<path d="M0.790612 42.4101L10.5835 47.6848L10.377 48.073L0.584091 42.7984L0.790612 42.4101Z" fill="#CACACA"/>
<path d="M36.2356 80.8035H93.8463C94.0582 80.8032 94.2613 80.7184 94.4112 80.5676C94.561 80.4168 94.6453 80.2124 94.6455 79.9992V43.3657C94.6453 43.1524 94.561 42.948 94.4112 42.7972C94.2613 42.6465 94.0582 42.5616 93.8463 42.5614H36.2356C36.0237 42.5616 35.8206 42.6465 35.6708 42.7972C35.5209 42.948 35.4367 43.1524 35.4364 43.3657V79.9992C35.4367 80.2124 35.521 80.4168 35.6708 80.5676C35.8206 80.7184 36.0237 80.8032 36.2356 80.8035Z" fill="#E4E4E4"/>
<path d="M88.5482 47.0006C88.639 47.0007 88.7261 47.0371 88.7903 47.1017C88.8545 47.1663 88.8906 47.2539 88.8907 47.3453V76.0196C88.8906 76.111 88.8545 76.1986 88.7903 76.2632C88.7261 76.3278 88.639 76.3642 88.5482 76.3643H41.5337C41.4429 76.3642 41.3559 76.3278 41.2916 76.2632C41.2274 76.1986 41.1913 76.111 41.1912 76.0196V47.3453C41.1913 47.2539 41.2274 47.1663 41.2916 47.1017C41.3559 47.0371 41.4429 47.0007 41.5337 47.0006H88.5482Z" fill="white"/>
<path d="M41.077 54.386V52.569H47.7257V46.8857H49.5313V52.569H61.3681V46.8857H63.1737V52.569H81.4304V46.8857H83.236V52.569H89.5491V54.386H83.236V61.4523H89.5491V63.2693H83.236V70.8403H89.5491V72.6573H73.5058V76.4791H71.7002V72.6573H63.1737V76.4791H61.3681V72.6573H41.077V70.8403H61.3681V63.2693H41.077V61.4523H47.7257V54.386H41.077ZM63.1737 54.386V56.6069H81.4304V54.386H63.1737ZM81.4304 58.4239H63.1737V61.4523H81.4304V58.4239ZM81.4304 70.8403V63.2693H73.5058V70.8403H81.4304ZM63.1737 70.8403H71.7001V63.2693H63.1737V70.8403ZM49.5313 61.4523H61.3681V54.386H49.5313V61.4523Z" fill="#E6E6E6"/>
<path d="M62.2708 64.9123C60.9966 64.9123 59.9637 63.8728 59.9637 62.5906C59.9637 61.3083 60.9966 60.2688 62.2708 60.2688C63.5451 60.2688 64.578 61.3083 64.578 62.5906C64.578 63.8728 63.5451 64.9123 62.2708 64.9123Z" fill="#04D361"/>
<path d="M0.045105 81H104V80.7493H0L0.045105 81Z" fill="#CACACA"/>
<path d="M61.9944 48.7981C54.1342 48.7981 47.7623 42.3859 47.7623 34.4759C47.7623 26.566 54.1342 20.1537 61.9944 20.1537C69.8546 20.1537 76.2266 26.566 76.2266 34.4759C76.2266 42.3859 69.8546 48.7981 61.9944 48.7981Z" fill="#04D361"/>
<path d="M61.8552 57.7582L66.3515 50.0288L70.8478 42.2994L61.9479 42.2455L53.0479 42.1916L57.4516 49.9749L61.8552 57.7582Z" fill="#04D361"/>
<path d="M61.8802 39.5244C59.0601 39.5244 56.7739 37.2238 56.7739 34.3858C56.7739 31.5479 59.0601 29.2473 61.8802 29.2473C64.7003 29.2473 66.9865 31.5479 66.9865 34.3858C66.9865 37.2238 64.7003 39.5244 61.8802 39.5244Z" fill="white"/>
<path d="M62.3236 0.0735924C62.3236 0.0735924 65.369 -0.78969 66.2697 3.39722C67.1705 7.58414 66.5984 7.05661 66.5984 7.05661L59.7999 6.25807C59.7999 6.25807 57.7555 1.34693 62.3236 0.0735924Z" fill="#2F2E41"/>
<path d="M66.7524 18.4417C66.7524 18.4417 71.3469 18.6557 70.5512 20.4706C70.495 20.5989 70.4426 20.7191 70.3941 20.8312C69.8254 22.1457 69.1708 23.4209 68.4345 24.6483L65.6107 29.3567L64.5831 28.7822L67.4747 21.2179L64.8757 21.0044L66.7524 18.4417Z" fill="#FFB6B6"/>
<path d="M54.6385 20.3638L53.1533 23.6199C53.1533 23.6199 52.0394 24.7409 50.8194 29.2246C49.5994 33.7084 49.3342 33.5483 49.3342 33.5483L50.5401 33.9524L55.4872 24.901L57.9271 21.8051L57.1845 20.1503L54.6385 20.3638Z" fill="#FFB6B6"/>
<path d="M56.4419 16.6274L54.3077 20.6247C54.3077 20.6247 49.4691 30.1927 49.9692 30.161C50.5313 30.1252 52.1103 30.7846 52.5951 31.4248C52.8291 31.7338 56.2486 24.1865 57.4497 22.499L60.0488 20.4706C60.0488 20.4706 67.4284 21.7205 67.4375 21.3141C67.4419 21.115 64.9942 25.8917 65.4965 25.6801C66.0688 25.439 67.4149 26.6123 68.0083 26.3694C68.2532 26.2692 69.9832 22.0481 70.6836 20.3184C70.7714 20.1025 70.776 19.8613 70.6964 19.6422C70.6167 19.4231 70.4587 19.2417 70.2532 19.1338C69.7268 18.8583 62.4139 17.1779 62.4139 17.1779L62.5418 16.5206L62.0114 15.4531L56.4419 16.6274Z" fill="#2F2E41"/>
<path d="M60.8181 4.84372C60.6351 3.70884 61.401 2.63955 62.5287 2.45539C63.6565 2.27123 64.719 3.04193 64.902 4.17681C65.085 5.31169 64.3192 6.38098 63.1914 6.56514C62.0637 6.74931 61.0011 5.9786 60.8181 4.84372Z" fill="#FFB6B6"/>
<path d="M56.2487 16.9481C56.1344 17.2929 56.8742 17.491 57.9054 17.2973C58.7975 17.1296 59.7741 16.9305 60.5443 16.7693C61.3691 16.5964 61.9584 16.4672 61.9584 16.4672C61.9584 16.4672 62.1705 17.8017 62.8601 17.6415C63.4542 17.5038 65.2295 11.2634 65.7096 9.53871C65.7446 9.41278 65.7379 9.27877 65.6903 9.15706C65.6427 9.03536 65.5569 8.93264 65.4459 8.86454L63.0076 7.36621C63.0076 7.36621 61.3272 6.78545 60.7145 6.76891C60.1019 6.75236 59.041 6.59222 59.041 6.59222C59.041 6.59222 57.821 6.69898 57.6089 7.60641C57.3967 8.51384 56.5113 13.8941 56.495 15.1861C56.477 16.6034 56.5912 15.914 56.2487 16.9481Z" fill="#CACACA"/>
<path d="M62.0867 1.8363C62.0867 1.8363 62.9445 4.124 65.0463 5.07361L65.3894 3.0449L62.0867 1.8363Z" fill="#2F2E41"/>
<path d="M60.8445 4.2703C60.6834 4.2703 60.5528 4.01937 60.5528 3.70983C60.5528 3.40029 60.6834 3.14935 60.8445 3.14935C61.0056 3.14935 61.1362 3.40029 61.1362 3.70983C61.1362 4.01937 61.0056 4.2703 60.8445 4.2703Z" fill="#FFB6B6"/>
<path d="M63.7282 29.8904L67.8289 31.7876L67.8527 31.7354C68.0473 31.3094 68.0658 30.8231 67.9041 30.3834C67.7424 29.9437 67.4138 29.5866 66.9905 29.3908L66.9904 29.3907L64.4858 28.232L63.7282 29.8904Z" fill="#2F2E41"/>
<path d="M51.1514 33.6807L48.636 32.546L48.6359 32.5459C48.2107 32.3542 47.7273 32.3402 47.2919 32.5071C46.8566 32.6741 46.5049 33.0082 46.3143 33.436L46.291 33.4884L50.4094 35.3463L51.1514 33.6807Z" fill="#2F2E41"/>
<path opacity="0.2" d="M57.9612 12.0076L58.4414 17.3227L57.5877 17.3633L57.9612 12.0076Z" fill="black"/>
<path d="M61.3086 21.937C61.2069 21.8227 61.1313 21.6873 61.0872 21.5404C61.043 21.3935 61.0314 21.2387 61.0532 21.0868C61.0749 20.9349 61.1295 20.7897 61.2131 20.6614C61.2967 20.533 61.4072 20.4246 61.5369 20.3439L63.3818 10.9656L65.5004 11.7812L63.0207 20.7434C63.141 20.9716 63.174 21.2363 63.1133 21.4874C63.0526 21.7384 62.9026 21.9583 62.6915 22.1054C62.4805 22.2526 62.2231 22.3167 61.9683 22.2856C61.7134 22.2546 61.4787 22.1305 61.3086 21.937Z" fill="#FFB6B6"/>
<path d="M62.915 12.5462L65.2413 12.9585C65.3074 12.9703 65.3754 12.9675 65.4404 12.9504C65.5054 12.9334 65.566 12.9024 65.6181 12.8596C65.6702 12.8169 65.7125 12.7633 65.7421 12.7026C65.7718 12.6419 65.7881 12.5755 65.7899 12.5079L65.8541 10.1389C65.9119 9.79776 65.8328 9.44748 65.6343 9.16488C65.4358 8.88229 65.1341 8.69044 64.7952 8.63141C64.4564 8.57237 64.1081 8.65098 63.8268 8.84999C63.5454 9.049 63.354 9.35216 63.2944 9.693L62.5523 11.934C62.5311 11.9982 62.5239 12.0662 62.5311 12.1335C62.5384 12.2007 62.56 12.2656 62.5944 12.3237C62.6288 12.3818 62.6752 12.4317 62.7306 12.4701C62.7859 12.5085 62.8488 12.5345 62.915 12.5462H62.915Z" fill="#CACACA"/>
<path d="M59.5251 21.772C59.3923 21.6966 59.2775 21.5928 59.1889 21.4679C59.1003 21.343 59.04 21.2001 59.0122 21.0492C58.9844 20.8983 58.9899 20.7431 59.0281 20.5946C59.0664 20.446 59.1365 20.3077 59.2337 20.1894L57.9928 10.711L60.2594 10.7999L60.7664 20.089C60.9531 20.2663 61.0687 20.5064 61.0912 20.7638C61.1137 21.0212 61.0416 21.2779 60.8886 21.4853C60.7356 21.6928 60.5123 21.8366 60.261 21.8894C60.0097 21.9422 59.7478 21.9005 59.5251 21.772Z" fill="#FFB6B6"/>
<path d="M58.0542 12.3587L60.3891 11.9986C60.4555 11.9884 60.5189 11.9638 60.5751 11.9267C60.6313 11.8895 60.6788 11.8406 60.7145 11.7833C60.7502 11.726 60.7732 11.6616 60.7819 11.5946C60.7907 11.5275 60.7849 11.4594 60.7651 11.3947L60.0711 9.13013C60.0171 8.78836 59.8306 8.48208 59.5526 8.27847C59.2745 8.07485 58.9275 7.99051 58.5878 8.04394C58.248 8.09737 57.9432 8.28421 57.7401 8.56349C57.537 8.84277 57.4523 9.19169 57.5045 9.53374L57.5157 11.8959C57.516 11.9635 57.5308 12.0303 57.5591 12.0917C57.5874 12.153 57.6285 12.2075 57.6796 12.2514C57.7307 12.2953 57.7907 12.3277 57.8553 12.3462C57.9199 12.3647 57.9878 12.369 58.0542 12.3587Z" fill="#CACACA"/>
</g>
<defs>
<clipPath id="clip0_80:399">
<rect width="104" height="81" fill="white" transform="matrix(-1 0 0 1 104 0)"/>
</clipPath>
</defs>
</svg>
