<svg width="100" height="80" viewBox="0 0 100 80" fill="none" xmlns="http://www.w3.org/2000/svg">
<path d="M23.6583 16C17.0246 23.7936 9.53846 32.8811 10.0223 40.8652C10.5061 48.8492 17.9462 70.8121 17.0246 70.9261H28.818C32.5753 68.8226 35.8202 64.9881 35.8202 61.648C35.8202 58.3079 34.7146 53.1122 35.0832 51.6277L41.7169 44.5764C44.6652 40.4941 42.454 36.7828 37.2944 39.0096C33.4905 41.2479 30.7793 43.054 28.8179 44.8469M24.3954 51.9989C24.8282 50.4281 25.4091 49.0734 26.2381 47.8126M21.8156 30.8449C17.879 36.3348 18.8595 40.0223 26.2381 47.8126M26.2381 47.8126C26.9147 46.7836 27.7565 45.8172 28.8179 44.8469M24.0269 37.154L28.8179 44.8469M76.7284 16C84.3748 24.7664 90.175 32.4487 89.996 40.4941C89.817 48.5394 82.1958 72.4988 82.6251 70.9261H71.5689C67.9024 69.2541 64.1084 65.968 64.5665 62.0192C65.0247 58.0703 65.6549 51.73 65.3036 51.6277L57.9328 43.8342C54.6159 39.7518 59.407 36.0406 63.0924 38.6385C66.5457 41.0107 69.3633 42.9293 71.5689 44.9703M76.3599 51.9989C75.8182 50.4676 75.1073 49.1364 74.2235 47.9165M74.2235 47.9165C74.2235 47.9165 80.4446 41.6074 80.7824 37.5251C81.0288 34.5476 77.8341 30.4738 77.8341 30.4738M74.2235 47.9165C73.4663 46.8714 72.5822 45.9079 71.5689 44.9703M76.7284 36.7828L71.5689 44.9703" stroke="#212D22" stroke-width="2"/>
<path d="M58.1201 49.9761L49.9888 54L41.4879 49.9761L45.9231 45.2206C45.9231 45.2206 49.9888 39.5316 45.1839 34.9779C41.1183 31.1249 34.835 34.6122 34.835 34.6122L28.5517 39.0018C28.5517 39.0018 22.7619 31.1653 23.0076 25.4669C23.37 17.0605 28.5581 9.34423 37.0526 9.00552C42.7288 8.77918 49.9888 15.5901 49.9888 15.5901C49.9888 15.5901 56.6417 9.00552 62.925 9.00552C71.4259 9.00552 77.4804 18.5165 76.97 25.1011C76.4595 31.6857 75.2052 34.2262 71.4259 39.0018C71.4259 39.0018 68.0995 36.4412 65.8818 34.9779C62.2769 32.5993 57.3809 32.8352 54.4241 35.7096C51.4672 38.5839 52.3393 43.2815 54.7937 46.318C56.2721 48.1471 58.1201 49.9761 58.1201 49.9761Z" fill="#04D361"/>
</svg>
